<mxfile host="app.diagrams.net" modified="2024-06-09T21:14:07.973Z" agent="Mozilla/5.0 (X11; Linux x86_64) AppleWebKit/537.36 (KHTML, like Gecko) Chrome/125.0.0.0 Safari/537.36" version="24.5.2" etag="nUoiWm2PUBQFNF8zAx73" type="github">
  <diagram name="Page-1" id="2sleaEBJz82Y65kT46Z9">
    <mxGraphModel>
      <root>
        <mxCell id="0" />
        <mxCell id="1" parent="0" />
      </root>
    </mxGraphModel>
  </diagram>
</mxfile>
